<?xml version="1.0" encoding="utf-8"?>
<svg version="1.1" xmlns:xlink="http://www.w3.org/1999/xlink" width="45px" height="45px" xmlns="http://www.w3.org/2000/svg">
  <g transform="matrix(1 0 0 1 -233 -236 )">
    <path d="M 255.5 236  C 268.1 236  278 245.9  278 258.5  C 278 271.1  268.1 281  255.5 281  C 242.9 281  233 271.1  233 258.5  C 233 245.9  242.9 236  255.5 236  Z " fill-rule="nonzero" fill="#ffffff" stroke="none" />
    <path d="M 255.5 236.5  C 267.82 236.5  277.5 246.18  277.5 258.5  C 277.5 270.82  267.82 280.5  255.5 280.5  C 243.18 280.5  233.5 270.82  233.5 258.5  C 233.5 246.18  243.18 236.5  255.5 236.5  Z " stroke-width="1" stroke="#797979" fill="none" />
  </g>
</svg>