<?xml version="1.0" encoding="utf-8"?>
<svg version="1.1" xmlns:xlink="http://www.w3.org/1999/xlink" width="23px" height="23px" xmlns="http://www.w3.org/2000/svg">
  <g transform="matrix(1 0 0 1 -436 -212 )">
    <path d="M 10.0625 19.2565104166667  C 10.3220486111111 19.2565104166667  10.5466579861111 19.1616753472222  10.736328125 18.9720052083333  L 17.5345052083333 12.173828125  C 17.7241753472222 11.9841579861111  17.8190104166667 11.7595486111111  17.8190104166667 11.5  C 17.8190104166667 11.2404513888889  17.7241753472222 11.0158420138889  17.5345052083333 10.826171875  L 10.736328125 4.02799479166667  C 10.5466579861111 3.83832465277778  10.3220486111111 3.74348958333333  10.0625 3.74348958333333  C 9.80295138888889 3.74348958333333  9.57834201388889 3.83832465277778  9.388671875 4.02799479166667  L 7.861328125 5.55533854166667  C 7.67165798611111 5.74500868055555  7.57682291666667 5.96961805555555  7.57682291666667 6.22916666666667  C 7.57682291666667 6.48871527777778  7.67165798611111 6.71332465277778  7.861328125 6.90299479166667  L 12.4583333333333 11.5  L 7.861328125 16.0970052083333  C 7.67165798611111 16.2866753472222  7.57682291666667 16.5112847222222  7.57682291666667 16.7708333333333  C 7.57682291666667 17.0303819444444  7.67165798611111 17.2549913194444  7.861328125 17.4446614583333  L 9.388671875 18.9720052083333  C 9.57834201388889 19.1616753472222  9.80295138888889 19.2565104166667  10.0625 19.2565104166667  Z M 21.4576822916667 5.7275390625  C 22.4858940972222 7.48947482638889  23 9.41362847222222  23 11.5  C 23 13.5863715277778  22.4858940972222 15.5105251736111  21.4576822916667 17.2724609375  C 20.4294704861111 19.0343967013889  19.0343967013889 20.4294704861111  17.2724609375 21.4576822916667  C 15.5105251736111 22.4858940972222  13.5863715277778 23  11.5 23  C 9.41362847222222 23  7.48947482638889 22.4858940972222  5.7275390625 21.4576822916667  C 3.96560329861111 20.4294704861111  2.57052951388889 19.0343967013889  1.54231770833333 17.2724609375  C 0.514105902777778 15.5105251736111  0 13.5863715277778  0 11.5  C 0 9.41362847222222  0.514105902777778 7.48947482638889  1.54231770833333 5.7275390625  C 2.57052951388889 3.96560329861111  3.96560329861111 2.57052951388889  5.7275390625 1.54231770833333  C 7.48947482638889 0.514105902777776  9.41362847222222 0  11.5 0  C 13.5863715277778 0  15.5105251736111 0.514105902777776  17.2724609375 1.54231770833333  C 19.0343967013889 2.57052951388889  20.4294704861111 3.96560329861111  21.4576822916667 5.7275390625  Z " fill-rule="nonzero" fill="#000000" stroke="none" transform="matrix(1 0 0 1 436 212 )" />
  </g>
</svg>