<?xml version="1.0" encoding="utf-8"?>
<svg version="1.1" xmlns:xlink="http://www.w3.org/1999/xlink" width="28px" height="27px" xmlns="http://www.w3.org/2000/svg">
  <g transform="matrix(1 0 0 1 -550 -277 )">
    <path d="M 17.2994791666667 10.318359375  C 18.2109375 11.197265625  18.6666666666667 12.2578125  18.6666666666667 13.5  C 18.6666666666667 14.7421875  18.2109375 15.802734375  17.2994791666667 16.681640625  C 16.3880208333333 17.560546875  15.2881944444444 18  14 18  C 12.7118055555556 18  11.6119791666667 17.560546875  10.7005208333333 16.681640625  C 9.7890625 15.802734375  9.33333333333333 14.7421875  9.33333333333333 13.5  C 9.33333333333333 12.2578125  9.7890625 11.197265625  10.7005208333333 10.318359375  C 11.6119791666667 9.439453125  12.7118055555556 9  14 9  C 15.2881944444444 9  16.3880208333333 9.439453125  17.2994791666667 10.318359375  Z M 18.94921875 18.2724609375  C 20.31640625 16.9541015625  21 15.36328125  21 13.5  C 21 11.63671875  20.31640625 10.0458984375  18.94921875 8.7275390625  C 17.58203125 7.4091796875  15.9322916666667 6.75  14 6.75  C 12.0677083333333 6.75  10.41796875 7.4091796875  9.05078125 8.7275390625  C 7.68359375 10.0458984375  7 11.63671875  7 13.5  C 7 15.36328125  7.68359375 16.9541015625  9.05078125 18.2724609375  C 10.41796875 19.5908203125  12.0677083333333 20.25  14 20.25  C 15.9322916666667 20.25  17.58203125 19.5908203125  18.94921875 18.2724609375  Z M 20.5989583333333 7.13671875  C 22.421875 8.89453125  23.3333333333333 11.015625  23.3333333333333 13.5  C 23.3333333333333 15.984375  22.421875 18.10546875  20.5989583333333 19.86328125  C 18.7760416666667 21.62109375  16.5763888888889 22.5  14 22.5  C 11.4236111111111 22.5  9.22395833333333 21.62109375  7.40104166666667 19.86328125  C 5.578125 18.10546875  4.66666666666667 15.984375  4.66666666666667 13.5  C 4.66666666666667 11.015625  5.578125 8.89453125  7.40104166666667 7.13671875  C 9.22395833333333 5.37890625  11.4236111111111 4.5  14 4.5  C 16.5763888888889 4.5  18.7760416666667 5.37890625  20.5989583333333 7.13671875  Z M 24.7369791666667 17.8681640625  C 25.3567708333333 16.4794921875  25.6666666666667 15.0234375  25.6666666666667 13.5  C 25.6666666666667 11.9765625  25.3567708333333 10.5205078125  24.7369791666667 9.1318359375  C 24.1171875 7.7431640625  23.2877604166667 6.5478515625  22.2486979166667 5.5458984375  C 21.2096354166667 4.5439453125  19.9700520833333 3.744140625  18.5299479166667 3.146484375  C 17.08984375 2.548828125  15.5798611111111 2.25  14 2.25  C 12.4201388888889 2.25  10.91015625 2.548828125  9.47005208333333 3.146484375  C 8.02994791666667 3.744140625  6.79036458333333 4.5439453125  5.75130208333333 5.5458984375  C 4.71223958333333 6.5478515625  3.8828125 7.7431640625  3.26302083333333 9.1318359375  C 2.64322916666667 10.5205078125  2.33333333333333 11.9765625  2.33333333333333 13.5  C 2.33333333333333 15.0234375  2.64322916666667 16.4794921875  3.26302083333333 17.8681640625  C 3.8828125 19.2568359375  4.71223958333333 20.4521484375  5.75130208333333 21.4541015625  C 6.79036458333333 22.4560546875  8.02994791666667 23.255859375  9.47005208333333 23.853515625  C 10.91015625 24.451171875  12.4201388888889 24.75  14 24.75  C 15.5798611111111 24.75  17.08984375 24.451171875  18.5299479166667 23.853515625  C 19.9700520833333 23.255859375  21.2096354166667 22.4560546875  22.2486979166667 21.4541015625  C 23.2877604166667 20.4521484375  24.1171875 19.2568359375  24.7369791666667 17.8681640625  Z M 26.1223958333333 6.7236328125  C 27.3741319444444 8.7919921875  28 11.05078125  28 13.5  C 28 15.94921875  27.3741319444444 18.2080078125  26.1223958333333 20.2763671875  C 24.8706597222222 22.3447265625  23.1723090277778 23.982421875  21.02734375 25.189453125  C 18.8823784722222 26.396484375  16.5399305555556 27  14 27  C 11.4600694444444 27  9.11762152777778 26.396484375  6.97265625 25.189453125  C 4.82769097222222 23.982421875  3.12934027777778 22.3447265625  1.87760416666667 20.2763671875  C 0.625868055555555 18.2080078125  0 15.94921875  0 13.5  C 0 11.05078125  0.625868055555555 8.7919921875  1.87760416666667 6.7236328125  C 3.12934027777778 4.6552734375  4.82769097222222 3.017578125  6.97265625 1.810546875  C 9.11762152777778 0.603515624999998  11.4600694444444 0  14 0  C 16.5399305555556 0  18.8823784722222 0.603515624999998  21.02734375 1.810546875  C 23.1723090277778 3.017578125  24.8706597222222 4.6552734375  26.1223958333333 6.7236328125  Z " fill-rule="nonzero" fill="#000000" stroke="none" transform="matrix(1 0 0 1 550 277 )" />
  </g>
</svg>