<?xml version="1.0" encoding="utf-8"?>
<svg version="1.1" xmlns:xlink="http://www.w3.org/1999/xlink" width="9px" height="17px" xmlns="http://www.w3.org/2000/svg">
  <g transform="matrix(1 0 0 1 -227 -182 )">
    <path d="M 8.84536082474227 1.02204408817635  C 8.94845360824742 1.13560454241817  9 1.26619906479626  9 1.41382765531062  C 9 1.56145624582498  8.94845360824742 1.69205076820307  8.84536082474227 1.80561122244489  L 2.7680412371134 8.5  L 8.84536082474227 15.1943887775551  C 8.94845360824742 15.3079492317969  9 15.438543754175  9 15.5861723446894  C 9 15.7338009352037  8.94845360824742 15.8643954575818  8.84536082474227 15.9779559118236  L 8.07216494845361 16.8296593186373  C 7.96907216494845 16.9432197728791  7.85051546391753 17  7.71649484536082 17  C 7.58247422680413 17  7.4639175257732 16.9432197728791  7.36082474226804 16.8296593186373  L 0.154639175257732 8.89178356713427  C 0.0515463917525774 8.77822311289245  0 8.64762859051436  0 8.5  C 0 8.35237140948564  0.0515463917525774 8.22177688710755  0.154639175257732 8.10821643286573  L 7.36082474226804 0.170340681362726  C 7.4639175257732 0.0567802271209079  7.58247422680413 0  7.71649484536082 0  C 7.85051546391753 0  7.96907216494845 0.0567802271209079  8.07216494845361 0.170340681362726  L 8.84536082474227 1.02204408817635  Z " fill-rule="nonzero" fill="#000000" stroke="none" transform="matrix(1 0 0 1 227 182 )" />
  </g>
</svg>