<?xml version="1.0" encoding="utf-8"?>
<svg version="1.1" xmlns:xlink="http://www.w3.org/1999/xlink" width="22px" height="22px" xmlns="http://www.w3.org/2000/svg">
  <g transform="matrix(1 0 0 1 -254 -440 )">
    <path d="M 265 440  C 271.16 440  276 444.84  276 451  C 276 457.16  271.16 462  265 462  C 258.84 462  254 457.16  254 451  C 254 444.84  258.84 440  265 440  Z " fill-rule="nonzero" fill="#ffffff" stroke="none" />
    <path d="M 265 440.5  C 270.88 440.5  275.5 445.12  275.5 451  C 275.5 456.88  270.88 461.5  265 461.5  C 259.12 461.5  254.5 456.88  254.5 451  C 254.5 445.12  259.12 440.5  265 440.5  Z " stroke-width="1" stroke="#797979" fill="none" />
  </g>
</svg>