<?xml version="1.0" encoding="utf-8"?>
<svg version="1.1" xmlns:xlink="http://www.w3.org/1999/xlink" width="44px" height="44px" xmlns="http://www.w3.org/2000/svg">
  <g transform="matrix(1 0 0 1 -239 -342 )">
    <path d="M 41.0494791666667 10.95703125  C 43.0164930555556 14.3276909722222  44 18.0086805555556  44 22  C 44 25.9913194444444  43.0164930555556 29.6723090277778  41.0494791666667 33.04296875  C 39.0824652777778 36.4136284722222  36.4136284722222 39.0824652777778  33.04296875 41.0494791666667  C 29.6723090277778 43.0164930555556  25.9913194444444 44  22 44  C 18.0086805555556 44  14.3276909722222 43.0164930555556  10.95703125 41.0494791666667  C 7.58637152777778 39.0824652777778  4.91753472222222 36.4136284722222  2.95052083333333 33.04296875  C 0.983506944444444 29.6723090277778  0 25.9913194444444  0 22  C 0 18.0086805555556  0.983506944444444 14.3276909722222  2.95052083333333 10.95703125  C 4.91753472222222 7.58637152777778  7.58637152777778 4.91753472222222  10.95703125 2.95052083333333  C 14.3276909722222 0.983506944444441  18.0086805555556 0  22 0  C 25.9913194444444 0  29.6723090277778 0.983506944444441  33.04296875 2.95052083333333  C 36.4136284722222 4.91753472222222  39.0824652777778 7.58637152777778  41.0494791666667 10.95703125  Z " fill-rule="nonzero" fill="#000000" stroke="none" transform="matrix(1 0 0 1 239 342 )" />
  </g>
</svg>