<?xml version="1.0" encoding="utf-8"?>
<svg version="1.1" xmlns:xlink="http://www.w3.org/1999/xlink" width="27px" height="32px" xmlns="http://www.w3.org/2000/svg">
  <g transform="matrix(1 0 0 1 -419 -437 )">
    <path d="M 7.5 10.1818181818182  L 7.5 15  L 19.5 15  L 19.5 10.1818181818182  C 19.5 8.57575757575757  18.9140625 7.20454545454545  17.7421875 6.06818181818182  C 16.5703125 4.93181818181818  15.15625 4.36363636363636  13.5 4.36363636363636  C 11.84375 4.36363636363636  10.4296875 4.93181818181818  9.2578125 6.06818181818182  C 8.0859375 7.20454545454545  7.5 8.57575757575757  7.5 10.1818181818182  Z M 26.34375 15.1818181818182  C 26.78125 15.6060606060606  27 16.1212121212121  27 16.7272727272727  L 27 29.8181818181818  C 27 30.4242424242424  26.78125 30.9393939393939  26.34375 31.3636363636364  C 25.90625 31.7878787878788  25.375 32  24.75 32  L 2.25 32  C 1.625 32  1.09375 31.7878787878788  0.65625 31.3636363636364  C 0.21875 30.9393939393939  0 30.4242424242424  0 29.8181818181818  L 0 16.7272727272727  C 0 16.1212121212121  0.21875 15.6060606060606  0.65625 15.1818181818182  C 1.09375 14.7575757575758  1.625 14.5454545454545  2.25 14.5454545454545  L 3 14.5454545454545  L 3 10.1818181818182  C 3 7.39393939393939  4.03125 5  6.09375 3  C 8.15625 1  10.625 0  13.5 0  C 16.375 0  18.84375 1  20.90625 3  C 22.96875 5  24 7.39393939393939  24 10.1818181818182  L 24 14.5454545454545  L 24.75 14.5454545454545  C 25.375 14.5454545454545  25.90625 14.7575757575758  26.34375 15.1818181818182  Z " fill-rule="nonzero" fill="#000000" stroke="none" transform="matrix(1 0 0 1 419 437 )" />
  </g>
</svg>